<svg xmlns="http://www.w3.org/2000/svg" viewBox="0 0 512 512">
  <defs>
    <linearGradient id="asana-gradient" x1="0%" y1="0%" x2="100%" y2="100%">
      <stop offset="0%" stop-color="#FF5263"/>
      <stop offset="100%" stop-color="#FC7B68"/>
    </linearGradient>
  </defs>
  <path fill="url(#asana-gradient)" d="M365.2 268.4c-60.4 0-109.3 48.9-109.3 109.3s48.9 109.3 109.3 109.3 109.3-48.9 109.3-109.3-48.9-109.3-109.3-109.3zm-218.4 0c-60.4 0-109.3 48.9-109.3 109.3s48.9 109.3 109.3 109.3 109.3-48.9 109.3-109.3-48.9-109.3-109.3-109.3zM256 25c-60.4 0-109.3 48.9-109.3 109.3S195.6 243.6 256 243.6s109.3-48.9 109.3-109.3S316.4 25 256 25z"/>
</svg>
