<?xml version="1.0" encoding="utf-8"?>
<!-- Generator: Adobe Illustrator 28.0.0, SVG Export Plug-In . SVG Version: 6.00 Build 0)  -->
<svg version="1.1" id="Слой_1" xmlns="http://www.w3.org/2000/svg" xmlns:xlink="http://www.w3.org/1999/xlink" x="0px" y="0px"
	 viewBox="0 0 1000 1000" enable-background="new 0 0 1000 1000" xml:space="preserve">
<circle fill="#7D2AE7" cx="500" cy="500" r="500"/>
<radialGradient id="SVGID_1_" cx="-518.2288208" cy="995.4498901" r="0.5263158" gradientTransform="matrix(956.0023804 -1116.0019531 -1116.0019531 -956.0023804 1606545.125 374194.40625)" gradientUnits="userSpaceOnUse">
	<stop  offset="0" style="stop-color:#6420FF"/>
	<stop  offset="1" style="stop-color:#6420FF;stop-opacity:0"/>
</radialGradient>
<circle fill="url(#SVGID_1_)" cx="500" cy="500" r="500"/>
<radialGradient id="SVGID_00000117647336901685724320000015110313155365707427_" cx="-518.6608887" cy="995.4567871" r="0.5263158" gradientTransform="matrix(957.4968262 1352.49646 1352.49646 -957.4968262 -849470.875 1654747.375)" gradientUnits="userSpaceOnUse">
	<stop  offset="0" style="stop-color:#00C4CC"/>
	<stop  offset="1" style="stop-color:#00C4CC;stop-opacity:0"/>
</radialGradient>
<circle fill="url(#SVGID_00000117647336901685724320000015110313155365707427_)" cx="500" cy="500" r="500"/>
<radialGradient id="SVGID_00000075881692766492370910000017058772241445797514_" cx="-518.2340698" cy="995.6984863" r="0.5263158" gradientTransform="matrix(1023.0001221 -1030.0015869 -473.7113647 -470.4913025 1002020.375 -64428.1367188)" gradientUnits="userSpaceOnUse">
	<stop  offset="0" style="stop-color:#6420FF"/>
	<stop  offset="1" style="stop-color:#6420FF;stop-opacity:0"/>
</radialGradient>
<circle fill="url(#SVGID_00000075881692766492370910000017058772241445797514_)" cx="500" cy="500" r="500"/>
<radialGradient id="SVGID_00000016049705552293927210000005799934364463053756_" cx="-518.7322998" cy="995.3734741" r="0.5263158" gradientTransform="matrix(595.9987183 1371.9995117 2298.4060059 -998.4311523 -1978199.625 1705647.125)" gradientUnits="userSpaceOnUse">
	<stop  offset="0" style="stop-color:#00C4CC;stop-opacity:0.725916"/>
	<stop  offset="0.0001" style="stop-color:#00C4CC"/>
	<stop  offset="1" style="stop-color:#00C4CC;stop-opacity:0"/>
</radialGradient>
<circle fill="url(#SVGID_00000016049705552293927210000005799934364463053756_)" cx="500" cy="500" r="500"/>
<path fill="#FFFFFF" d="M898.8052368,527.4105225c-1.342041,0-2.5368042,0.8999634-3.1315308,2.6894531
	c-8.1105347,23.0842896-19.0579224,36.8631592-28.0631714,36.8631592c-5.1737061,0-7.2631226-5.7683716-7.2631226-14.8262329
	c0-22.5842285,13.5841675-70.5447693,20.34729-92.4353333c0.7999878-2.2568359,1.2526245-4.6221008,1.3474121-7.0152588
	c0-6.3678894-3.4841919-9.5021057-12.0894775-9.5021057c-8.6105347,0-19.3052979,3.6815796-28.9578857,20.6963196
	c-3.3842163-15.0247498-13.5315552-21.5921021-27.7105713-21.5921021c-16.3684082,0-32.1894531,10.5473633-45.2262573,27.6120911
	c-13.0315552,17.0647583-28.3052979,22.7363281-39.8474121,19.9500122
	c8.3052979-20.2484131,11.3421631-35.4226074,11.3421631-46.6663208c0-17.6621094-8.7053223-28.3084412-22.7842407-28.3084412
	c-21.4473877,0-33.7841797,20.4473877-33.7841797,41.940033c0,16.6168213,7.5157471,33.7315674,24.1315308,42.039978
	c-13.8842163,31.3916016-34.1789551,59.802124-41.8894653,59.802124c-9.9526367,0-12.8895264-48.6578979-12.2894897-83.4837036
	c0.2947388-19.950531,1.989502-20.9952393,1.989502-27.0646973c0-3.4326477-2.2894897-5.8210754-11.2947388-5.8210754
	c-21.0421143,0-27.6105957,17.8610535-28.5579224,38.358429c-0.3631592,7.7715759-1.5789185,15.4799805-3.6315918,22.9847412
	c-8.8526001,31.4420776-26.9631348,55.2736816-38.8052368,55.2736816c-5.5210571,0-6.9631348-5.5210571-6.9631348-12.6842651
	c0-22.5889282,12.6368408-50.8978577,12.6368408-74.9773254c0-17.7610474-7.7631836-28.9552612-22.4421387-28.9552612
	c-17.2105103,0-40.0473633,20.5473633-61.6394653,58.9552612c7.1147156-29.4031372,10-57.9105225-10.9947205-57.9105225
	c-4.5689697,0.0705261-9.0547485,1.2305298-13.0847473,3.3831482c-2.8857727,1.4926453-4.4279175,4.1789551-4.2289429,7.1642151
	c1.9900208,31.393158-25.2736816,111.6405334-51.1441956,111.6405334c-4.7263489,0-6.965271-5.0737305-6.965271-13.331543
	c0-22.5895386,13.4826355-70.4484558,20.2489624-92.3884583c0.8241882-2.3878784,1.2773438-4.8878784,1.3431396-7.4131775
	c0-5.9700012-3.6816101-9.054718-12.0894775-9.054718c-9.2536621,0-19.2536621,3.5326233-28.9552917,20.5473633
	c-3.3831482-15.0247498-13.5325928-21.5921021-27.6615601-21.5921021c-23.2341919,0-49.2541809,24.5773621-60.6468506,56.6668396
	c-15.2736511,42.7868652-46.0699768,84.081604-87.512619,84.081604c-37.6121063,0-57.4626312-31.2947388-57.4626312-80.6984558
	c0-71.4431458,52.4378815-129.7515869,91.2936859-129.7515869c18.6068268,0,27.4626312,11.841095,27.4626312,30
	c0,21.9905701-12.2389526,32.1895142-12.2389526,40.5473938c0,2.5373535,2.0894775,5.0747375,6.3184204,5.0747375
	c16.9152832,0,36.7663269-19.8505554,36.7663269-46.9152527c0-27.0647583-21.9405518-46.915802-60.8457947-46.915802
	c-64.2289581,0-128.9057922,64.6768188-128.9057922,147.5126038c0,65.9199829,32.5373688,105.6726685,88.7563171,105.6726685
	c38.358429,0,71.8905029-29.7999878,90-64.6789551c2.039978,28.9052734,15.1247253,43.9315186,35.0747375,43.9315186
	c17.7610474,0,32.1394958-10.5473022,43.1341858-29.1525269c4.2289734,19.4525757,15.4231873,29.005249,30,29.005249
	c16.7163391,0,30.6468506-10.6000366,43.930542-30.2526855c-0.1989441,15.4263306,3.3331604,29.9526367,16.7163086,29.9526367
	c6.3184204,0,13.8805237-1.4420776,15.2236938-6.9631348c14.0299988-58.2610474,48.9073486-105.8231506,59.5547485-105.8231506
	c3.1315308,0,3.9789429,2.98526,3.9789429,6.6168213c0,15.8210449-11.1473389,48.2589417-11.1473389,68.9537048
	c0,22.4368286,9.505188,37.2157593,29.1578979,37.2157593c21.7894287,0,43.9262695-26.668396,58.7052002-65.6721191
	c4.6263428,36.4194946,14.6263428,65.819519,30.2000122,65.819519c19.2000122,0,53.2841797-40.3474121,73.9263916-83.1326599
	c8.0631104,1.0447693,20.2525635,0.7958069,31.8947144-7.462616c-4.9263306,12.5868225-7.8632202,26.3679199-7.8632202,40.1005249
	c0,39.7000122,18.9052734,50.7946777,35.2263794,50.7946777c17.7578735,0,32.1367798-10.5473022,43.1315308-29.1525269
	c3.6315918,16.7631226,12.8842163,28.9525757,29.9526367,28.9525757c26.663208,0,49.8473511-27.2631226,49.8473511-49.6526489
	C904.3262939,531.0473633,901.7894897,527.4105225,898.8052368,527.4105225z M345.0747375,564.8737183
	c-10.7957764,0-15.0247498-10.8947144-15.0247498-27.0631714c0-28.0595093,19.2036743-75.024231,39.552124-75.024231
	c8.8557739,0,12.2389221,10.4973755,12.2389221,23.2831421
	C381.8410339,514.5773926,363.5821228,564.8737183,345.0747375,564.8737183L345.0747375,564.8737183z M714.1315918,480.9952698
	c-6.4210815-7.6621094-8.7579346-18.1094971-8.7579346-27.363678c0-11.4426575,4.1790161-21.0942383,9.2052612-21.0942383
	c5.0210571,0,6.5158081,4.925293,6.5158081,11.7910767C721.0947266,455.7710571,717.0157471,472.5868225,714.1315918,480.9952698
	L714.1315918,480.9952698z M797.663208,564.8737183c-10.7474365,0-14.9790039-12.4842529-14.9790039-27.0631714
	c0-27.1142273,19.2052612-75.024231,39.7052612-75.024231c8.8526611,0,12.0368652,10.3479004,12.0368652,23.2831421
	C834.4263306,514.5773926,816.4684448,564.8737183,797.663208,564.8737183L797.663208,564.8737183z"/>
</svg>
